<svg width="105" height="55" viewBox="0 0 105 55" fill="none" xmlns="http://www.w3.org/2000/svg">
<g clip-path="url(#clip0_317_27)">
<path d="M17.7044 17.979L9.69346 18.2648L0 37.2815L8.01212 36.9957L17.7044 17.979Z" fill="url(#paint0_linear_317_27)"/>
<path d="M40.0986 0H32.0818L6.11523 55H14.1321L23.4713 35.2183L28.9098 45.0263H36.2549L26.8493 28.062L40.0986 0Z" fill="url(#paint1_linear_317_27)"/>
<path d="M44.6375 27.6874L49.172 22.0803H52.235L44.6375 31.4752V33.7449H42.2666V22.0803H44.6375V27.6874ZM48.941 29.6714L47.8367 31.0368L47.409 31.5652L49.172 33.7449H52.235L48.941 29.6714Z" fill="url(#paint2_linear_317_27)"/>
<path d="M56.8134 33.7461H54.292L58.4876 22.0635H61.009L65.2047 33.7461H62.6833L61.8823 31.516H57.6144L56.8134 33.7461ZM58.477 29.1153H61.0197L59.7483 25.575L58.477 29.1153Z" fill="url(#paint3_linear_317_27)"/>
<path d="M69.6287 33.7461H67.2578V22.0803H69.6287V33.7461Z" fill="url(#paint4_linear_317_27)"/>
<path d="M74.0614 30.829V33.7449H71.6904V22.0791H76.3257C78.4205 22.0791 80.1338 23.8156 80.1338 25.9389C80.1338 27.4701 79.2428 28.8007 77.9596 29.4228L80.5083 33.7437H77.7475L75.4204 29.7987H74.0602V30.8266L74.0614 30.829ZM74.0614 24.9961V27.3992H76.3257C77.1124 27.3992 77.7653 26.7387 77.7653 25.9401C77.7653 25.1415 77.1124 24.481 76.3257 24.481H74.0614V24.9961Z" fill="url(#paint5_linear_317_27)"/>
<path d="M94.5909 27.9C94.5909 31.2626 91.9024 33.9875 88.5847 33.9875C85.2671 33.9875 82.5786 31.2626 82.5786 27.9C82.5786 24.5374 85.2671 21.8125 88.5847 21.8125C91.9024 21.8125 94.5909 24.5374 94.5909 27.9ZM88.5847 31.5856C90.5943 31.5856 92.2211 29.9356 92.2211 27.9C92.2211 25.8644 90.5931 24.2131 88.5847 24.2131C86.5764 24.2131 84.9484 25.8632 84.9484 27.9C84.9484 29.9368 86.5764 31.5856 88.5847 31.5856Z" fill="url(#paint6_linear_317_27)"/>
<path d="M100.261 31.546C100.391 31.5724 100.523 31.5868 100.661 31.5868C101.75 31.5868 102.631 30.6933 102.631 29.5897C102.631 27.3992 100.237 27.3247 98.8301 25.6014C98.2448 24.8845 97.8301 23.8817 97.8301 22.3217V22.0791H100.2V22.3217C100.2 23.2176 100.324 23.8757 101.039 24.4329C102.149 25.3 103.195 25.5678 104.124 26.8324C104.72 27.643 105.002 28.5821 105.002 29.5885C105.002 30.4748 104.744 31.2998 104.298 31.9903C103.523 33.1925 102.185 33.9875 100.662 33.9875C98.8467 33.9875 97.2922 32.8574 96.644 31.2542L98.7436 30.0508C98.919 30.8026 99.5126 31.3899 100.261 31.546Z" fill="url(#paint7_linear_317_27)"/>
</g>
<defs>
<linearGradient id="paint0_linear_317_27" x1="-9.2124" y1="10.6846" x2="62.5279" y2="76.1933" gradientUnits="userSpaceOnUse">
<stop stop-color="#A044FF"/>
<stop offset="0.99" stop-color="#6A3093"/>
</linearGradient>
<linearGradient id="paint1_linear_317_27" x1="-2.57226" y1="3.41183" x2="69.168" y2="68.9206" gradientUnits="userSpaceOnUse">
<stop stop-color="#A044FF"/>
<stop offset="0.99" stop-color="#6A3093"/>
</linearGradient>
<linearGradient id="paint2_linear_317_27" x1="33.8895" y1="24.4942" x2="114.477" y2="44.5693" gradientUnits="userSpaceOnUse">
<stop stop-color="#A044FF"/>
<stop offset="0.99" stop-color="#6A3093"/>
</linearGradient>
<linearGradient id="paint3_linear_317_27" x1="34.5153" y1="21.9842" x2="115.102" y2="42.0593" gradientUnits="userSpaceOnUse">
<stop stop-color="#A044FF"/>
<stop offset="0.99" stop-color="#6A3093"/>
</linearGradient>
<linearGradient id="paint4_linear_317_27" x1="35.1596" y1="19.3963" x2="115.747" y2="39.4714" gradientUnits="userSpaceOnUse">
<stop stop-color="#A044FF"/>
<stop offset="0.99" stop-color="#6A3093"/>
</linearGradient>
<linearGradient id="paint5_linear_317_27" x1="35.5067" y1="17.9996" x2="116.094" y2="38.0746" gradientUnits="userSpaceOnUse">
<stop stop-color="#A044FF"/>
<stop offset="0.99" stop-color="#6A3093"/>
</linearGradient>
<linearGradient id="paint6_linear_317_27" x1="36.3697" y1="14.5385" x2="116.957" y2="34.6136" gradientUnits="userSpaceOnUse">
<stop stop-color="#A044FF"/>
<stop offset="0.99" stop-color="#6A3093"/>
</linearGradient>
<linearGradient id="paint7_linear_317_27" x1="37.0318" y1="11.8796" x2="117.619" y2="31.9547" gradientUnits="userSpaceOnUse">
<stop stop-color="#A044FF"/>
<stop offset="0.99" stop-color="#6A3093"/>
</linearGradient>
<clipPath id="clip0_317_27">
<rect width="105" height="55" fill="white"/>
</clipPath>
</defs>
</svg>
